<svg version="1.1" id="Layer_1" xmlns="http://www.w3.org/2000/svg" xmlns:xlink="http://www.w3.org/1999/xlink" x="0px" y="0px" width="100%" viewBox="0 0 512 512" enable-background="new 0 0 512 512" xml:space="preserve">

<path fill="#FFE4C1" opacity="1.000000" stroke="none" d="
M117.064865,296.018372 
	C127.061638,296.007935 137.058411,295.997467 147.890167,296.128479 
	C148.859009,296.368988 148.992126,296.553741 149.126877,296.554932 
	C163.085495,296.679199 177.115005,297.700226 190.981293,296.622437 
	C202.779770,295.705322 213.460495,296.908112 223.654877,303.031891 
	C232.951782,308.616516 242.502228,313.779053 252.116974,319.355164 
	C252.836792,319.756409 253.380554,319.930115 254.142456,320.361328 
	C262.557404,325.394836 270.623535,330.415100 278.983521,334.885986 
	C289.807343,340.674530 299.041595,347.781799 303.126434,360.433044 
	C303.470520,365.551208 303.763428,370.226562 304.010986,375.276642 
	C303.927917,376.402161 303.890167,377.153015 303.523926,378.007385 
	C302.543671,379.228088 301.986816,380.415253 301.223694,381.450348 
	C297.898010,385.961243 295.277191,391.414917 291.005035,394.725464 
	C278.216248,404.635376 267.086212,404.574127 253.251297,395.811798 
	C235.974350,384.869446 218.789871,373.776794 201.356750,363.089478 
	C198.478485,361.324951 194.470932,360.424347 191.091995,360.659302 
	C184.182281,361.139832 180.074585,365.905090 178.227798,372.233124 
	C176.547318,377.991364 179.714340,384.545380 185.629745,388.344055 
	C203.536896,399.843414 221.349365,411.503387 239.512909,422.585815 
	C252.831512,430.712158 267.465393,434.312317 283.013153,430.834473 
	C290.007141,429.270020 296.699005,426.354706 304.067627,423.870361 
	C304.067627,448.885468 304.067627,473.998718 303.911469,499.431732 
	C296.415375,503.803162 289.073608,507.851593 281.757538,511.945862 
	C281.669342,511.995239 281.911835,512.635498 282.000000,513.000000 
	C274.645752,513.000000 267.291504,513.000000 259.783691,512.690369 
	C259.163025,511.938324 258.768250,511.351990 258.217865,511.075134 
	C249.774933,506.827881 241.112701,502.973114 232.895920,498.329163 
	C217.207123,489.462250 201.789963,480.115814 186.220993,471.035400 
	C173.869568,463.831573 161.599747,456.469482 149.031784,449.661133 
	C139.001251,444.227356 130.024673,435.521820 117.009644,437.520386 
	C116.993576,390.042847 117.029221,343.030609 117.064865,296.018372 
z" data-index="1" style="opacity: 1;"></path>
<path fill="#392E6E" opacity="1.000000" stroke="none" d="
M117.040680,295.549744 
	C117.029221,343.030609 116.993576,390.042847 116.986542,437.988739 
	C117.010078,450.394104 117.009369,461.865784 116.998611,473.337494 
	C116.989357,483.201233 111.209450,488.981995 101.226311,488.991058 
	C73.128922,489.016602 45.031406,488.962341 16.934170,489.031799 
	C11.216014,489.045929 6.647001,487.083557 3.173065,482.507263 
	C2.666284,481.839691 1.734904,481.494415 1.000000,481.000000 
	C1.000000,406.645782 1.000000,332.291534 0.999999,257.468658 
	C1.610040,256.844330 2.529140,256.891418 2.784080,256.502808 
	C7.062770,249.980759 13.684370,249.033417 20.620945,249.021118 
	C46.443558,248.975357 72.266579,248.940643 98.088776,249.053085 
	C103.557175,249.076889 109.374596,249.282135 112.818764,254.481827 
	C114.718849,257.350403 116.648026,260.818146 116.812218,264.103363 
	C117.327171,274.406952 117.010826,284.752106 117.040680,295.549744 
z" data-index="2" style="opacity: 1;"></path>
<path fill="#FDD1A3" opacity="1.000000" stroke="none" d="
M304.067627,499.111969 
	C304.067627,473.998718 304.067627,448.885468 304.067627,423.870361 
	C296.699005,426.354706 290.007141,429.270020 283.013153,430.834473 
	C267.465393,434.312317 252.831512,430.712158 239.512909,422.585815 
	C221.349365,411.503387 203.536896,399.843414 185.629745,388.344055 
	C179.714340,384.545380 176.547318,377.991364 178.227798,372.233124 
	C180.074585,365.905090 184.182281,361.139832 191.091995,360.659302 
	C194.470932,360.424347 198.478485,361.324951 201.356750,363.089478 
	C218.789871,373.776794 235.974350,384.869446 253.251297,395.811798 
	C267.086212,404.574127 278.216248,404.635376 291.005035,394.725464 
	C295.277191,391.414917 297.898010,385.961243 301.223694,381.450348 
	C301.986816,380.415253 302.543671,379.228088 303.573792,378.484253 
	C303.952118,393.058563 303.952118,407.259552 303.952118,422.536011 
	C314.563812,415.601685 321.299255,407.130859 326.730621,397.506622 
	C333.441376,385.615265 334.628601,372.635895 334.382690,359.183228 
	C341.463470,355.386292 348.214508,351.738159 355.331818,348.056366 
	C367.542969,341.807098 379.408630,335.630615 391.227386,329.365814 
	C405.364441,321.872162 419.957428,316.045044 436.379517,317.024811 
	C443.919678,317.474640 451.444031,318.190125 459.231873,318.848450 
	C459.662262,318.885803 459.836334,318.859802 460.404907,318.904480 
	C481.799866,324.454010 497.714050,336.935272 509.939819,354.553253 
	C510.653381,355.581543 511.966125,356.194000 513.000000,357.000000 
	C513.000000,360.361298 513.000000,363.722565 512.728394,367.236694 
	C510.773712,368.665894 509.174896,370.075989 507.394836,371.198669 
	C478.912903,389.161865 450.409546,407.091095 421.907532,425.022400 
	C398.590363,439.691742 375.269440,454.355225 351.948334,469.018280 
	C335.989746,479.052155 320.027985,489.080933 304.067627,499.111969 
z" data-index="3" style="opacity: 1;"></path>

<path fill="#000000" opacity="1.000000" stroke="none" d="
M303.911469,499.431732 
	C320.027985,489.080933 335.989746,479.052155 351.948334,469.018280 
	C375.269440,454.355225 398.590363,439.691742 421.907532,425.022400 
	C450.409546,407.091095 478.912903,389.161865 507.394836,371.198669 
	C509.174896,370.075989 510.773712,368.665894 512.728394,367.694763 
	C513.000000,416.277039 513.000000,464.554077 513.000000,513.000000 
	C436.312531,513.000000 359.624908,513.000000 282.468658,513.000000 
	C281.911835,512.635498 281.669342,511.995239 281.757538,511.945862 
	C289.073608,507.851593 296.415375,503.803162 303.911469,499.431732 
z" data-index="5" style="opacity: 1; stroke-width: 2px; stroke: rgb(13, 153, 255); visibility: hidden;"></path>

<path fill="#FFCD00" opacity="1.000000" stroke="none" d="
M425.533875,1.000004 
	C426.492188,1.964531 426.730621,3.345125 427.518127,3.825492 
	C432.334808,6.763605 434.009399,11.169541 434.005493,16.522673 
	C433.991974,34.990719 434.001160,53.458786 433.542542,72.462601 
	C411.073608,72.958267 389.063782,72.918175 367.037292,72.439636 
	C366.070374,66.341301 365.923859,60.384899 363.972015,55.094555 
	C361.376038,48.058292 357.373505,41.540951 354.337097,34.884830 
	C370.959503,25.651669 387.254608,16.393600 403.447174,6.959547 
	C406.190857,5.361027 408.493561,3.005683 411.000000,1.000004 
	C415.689240,1.000000 420.378510,1.000000 425.533875,1.000004 
z" data-index="7" style="opacity: 1;"></path>
<path fill="#FFDE46" opacity="1.000000" stroke="none" d="
M182.986496,72.855881 
	C182.991058,56.563614 183.274582,40.264751 182.889343,23.981709 
	C182.678467,15.068182 183.825455,7.136971 191.307678,1.274763 
	C195.689255,1.000000 200.378510,1.000000 205.226120,1.283202 
	C212.268860,5.713943 219.119461,9.918869 226.045593,13.995506 
	C236.302887,20.032843 246.613754,25.979158 256.801483,32.282021 
	C247.552002,44.528061 240.744812,57.370647 240.488434,73.032196 
	C221.014923,73.028168 202.000717,72.942024 182.986496,72.855881 
z" data-index="8"></path>

<path fill="#FF405C" opacity="1.000000" stroke="none" d="
M251.940918,319.127625 
	C242.502228,313.779053 232.951782,308.616516 223.654877,303.031891 
	C213.460495,296.908112 202.779770,295.705322 190.981293,296.622437 
	C177.115005,297.700226 163.085495,296.679199 149.126877,296.554932 
	C148.992126,296.553741 148.859009,296.368988 148.353363,296.061096 
	C147.984207,255.906158 147.986832,215.960083 148.272766,175.269485 
	C150.520065,174.357132 152.483826,174.046173 154.448090,174.042770 
	C187.484818,173.985504 220.521591,173.966583 253.655334,174.401550 
	C253.734726,222.870163 253.717163,270.876373 253.405457,318.915283 
	C252.721161,319.007874 252.331039,319.067749 251.940918,319.127625 
z" data-index="10"></path>
<path fill="#D0004F" opacity="1.000000" stroke="none" d="
M253.558365,173.939148 
	C220.521591,173.966583 187.484818,173.985504 154.448090,174.042770 
	C152.483826,174.046173 150.520065,174.357132 148.241089,174.807434 
	C144.508270,174.737946 141.082123,174.451965 137.674362,174.020538 
	C130.192749,173.073318 125.252548,167.467224 125.114174,158.281799 
	C124.771225,135.514847 125.021027,112.739258 124.992989,89.967178 
	C124.979668,79.145111 132.965958,72.488113 142.169800,72.860023 
	C155.445251,73.396461 168.759140,72.981392 182.521561,72.914116 
	C202.000717,72.942024 221.014923,73.028168 240.948578,73.112991 
	C245.802658,73.150726 249.737335,73.189796 253.699951,73.681808 
	C253.746445,85.281181 253.800888,96.427689 253.775986,107.574020 
	C253.726578,129.695786 253.633423,151.817429 253.558365,173.939148 
z" data-index="11" style="opacity: 1;"></path>
<path fill="#FFCD00" opacity="1.000000" stroke="none" d="
M354.965546,348.090057 
	C348.214508,351.738159 341.463470,355.386292 334.061279,359.266052 
	C323.625549,364.632446 313.840942,369.767212 304.056335,374.901947 
	C303.763428,370.226562 303.470520,365.551208 303.398499,360.122070 
	C303.744537,357.885529 303.978973,356.402740 303.979126,354.919952 
	C303.989288,260.945496 303.980377,166.971039 304.444336,73.015030 
	C320.946930,73.080322 336.978363,73.127174 353.130432,73.344353 
	C353.441162,73.725716 353.665375,73.890312 353.946564,74.476059 
	C353.979645,163.523819 353.984711,252.103958 354.031097,340.684082 
	C354.032196,342.794647 354.495880,344.904968 354.803986,347.283081 
	C354.897919,347.730530 354.931732,347.910278 354.965546,348.090057 
z" data-index="12" style="opacity: 1;"></path>
<path fill="#FFDE46" opacity="1.000000" stroke="none" d="
M303.973175,72.996590 
	C303.980377,166.971039 303.989288,260.945496 303.979126,354.919952 
	C303.978973,356.402740 303.744537,357.885529 303.347351,359.679321 
	C299.041595,347.781799 289.807343,340.674530 278.983521,334.885986 
	C270.623535,330.415100 262.557404,325.394836 254.123596,320.048950 
	C253.824249,319.280243 253.761932,319.081390 253.699615,318.882568 
	C253.717163,270.876373 253.734726,222.870163 253.655334,174.401550 
	C253.633423,151.817429 253.726578,129.695786 253.775986,107.574020 
	C253.800888,96.427689 253.746445,85.281181 254.188446,73.624893 
	C271.111511,73.081375 287.574036,73.047714 304.017883,73.020279 
	C303.999237,73.026520 303.973175,72.996590 303.973175,72.996590 
z" data-index="13" style="opacity: 1;"></path>
<path fill="#FFBB85" opacity="1.000000" stroke="none" d="
M304.010986,375.276642 
	C313.840942,369.767212 323.625549,364.632446 333.731506,359.414856 
	C334.628601,372.635895 333.441376,385.615265 326.730621,397.506622 
	C321.299255,407.130859 314.563812,415.601685 303.952118,422.536011 
	C303.952118,407.259552 303.952118,393.058563 303.902283,378.380707 
	C303.890167,377.153015 303.927917,376.402161 304.010986,375.276642 
z" data-index="14"></path>
<path fill="#FF7355" opacity="1.000000" stroke="none" d="
M253.405457,318.915283 
	C253.761932,319.081390 253.824249,319.280243 253.905441,319.791473 
	C253.380554,319.930115 252.836792,319.756409 252.116974,319.355164 
	C252.331039,319.067749 252.721161,319.007874 253.405457,318.915283 
z" data-index="15"></path>
<path fill="#C1126B" opacity="1.000000" stroke="none" d="
M355.331818,348.056366 
	C354.931732,347.910278 354.897919,347.730530 354.900146,346.821594 
	C354.957733,305.353333 354.966431,264.614227 355.007202,223.875107 
	C355.023834,207.249573 355.109985,190.624084 355.622864,173.999634 
	C390.401489,174.024277 424.721802,174.047867 459.031342,174.535522 
	C459.005554,222.928101 458.990540,270.856598 458.975555,318.785126 
	C451.444031,318.190125 443.919678,317.474640 436.379517,317.024811 
	C419.957428,316.045044 405.364441,321.872162 391.227386,329.365814 
	C379.408630,335.630615 367.542969,341.807098 355.331818,348.056366 
z" data-index="16" style="opacity: 1;"></path>
<path fill="#D82364" opacity="1.000000" stroke="none" d="
M459.231873,318.848450 
	C458.990540,270.856598 459.005554,222.928101 459.253479,174.656952 
	C459.688049,174.584625 459.889740,174.854919 460.091431,175.125214 
	C460.062073,222.723679 460.032745,270.322144 460.006897,318.377197 
	C459.836334,318.859802 459.662262,318.885803 459.231873,318.848450 
z" data-index="17"></path>
<path fill="#A20F59" opacity="1.000000" stroke="none" d="
M460.535248,175.095123 
	C459.889740,174.854919 459.688049,174.584625 459.264252,174.192871 
	C424.721802,174.047867 390.401489,174.024277 355.559326,173.534485 
	C355.065918,140.043320 355.094330,107.018364 355.296478,73.891937 
	C355.689270,73.627617 355.862518,73.425499 356.447205,73.134140 
	C360.287659,73.015472 363.670837,72.946770 367.053986,72.878075 
	C389.063782,72.918175 411.073608,72.958267 433.548126,72.921494 
	C445.154205,72.890617 456.295532,72.935471 467.436890,72.983002 
	C475.515808,73.017471 479.687927,76.213432 482.014038,84.994087 
	C482.022339,111.608253 482.030548,137.371796 482.038757,163.135345 
	C482.309082,169.194443 474.672882,174.343201 465.903503,175.024399 
	C464.270813,175.151245 462.620972,175.057159 460.535248,175.095123 
z" data-index="18" style="opacity: 1;"></path>
<path fill="#B40A56" opacity="1.000000" stroke="none" d="
M482.384460,162.868271 
	C482.030548,137.371796 482.022339,111.608253 482.024780,85.368408 
	C482.351837,85.598061 482.945557,86.304413 482.944519,87.009895 
	C482.907562,112.207047 482.814972,137.404114 482.384460,162.868271 
z" data-index="19"></path>
<path fill="#FF8855" opacity="1.000000" stroke="none" d="
M367.037292,72.439636 
	C363.670837,72.946770 360.287659,73.015472 356.192322,73.072601 
	C355.305389,73.057907 355.130646,73.054779 354.696716,73.073380 
	C354.264954,73.111160 354.092346,73.127213 353.691162,73.119225 
	C353.462646,73.095192 353.009827,73.174034 353.009827,73.174034 
	C336.978363,73.127174 320.946930,73.080322 304.444336,73.015030 
	C303.973175,72.996590 303.999237,73.026520 303.997742,72.550552 
	C304.034637,52.033478 304.073059,31.992359 304.111450,11.951242 
	C324.119720,11.636841 340.480103,19.454634 353.852173,34.504639 
	C357.373505,41.540951 361.376038,48.058292 363.972015,55.094555 
	C365.923859,60.384899 366.070374,66.341301 367.037292,72.439636 
z" data-index="20" style="opacity: 1;"></path>
<path fill="#FDBF00" opacity="1.000000" stroke="none" d="
M303.897156,11.595612 
	C304.073059,31.992359 304.034637,52.033478 304.016418,72.544319 
	C287.574036,73.047714 271.111511,73.081375 254.160492,73.171951 
	C249.737335,73.189796 245.802658,73.150726 241.407852,73.030876 
	C240.744812,57.370647 247.552002,44.528061 256.801483,32.282017 
	C269.535645,18.374828 285.190063,11.603834 303.897156,11.595612 
z" data-index="21"></path>
<path fill="#F0AC26" opacity="1.000000" stroke="none" d="
M353.919708,73.143257 
	C354.092346,73.127213 354.264954,73.111160 354.706787,73.314163 
	C354.975952,73.533218 355.122742,73.993416 355.122742,73.993416 
	C355.094330,107.018364 355.065918,140.043320 355.101013,173.533417 
	C355.109985,190.624084 355.023834,207.249573 355.007202,223.875107 
	C354.966431,264.614227 354.957733,305.353333 354.839996,346.553894 
	C354.495880,344.904968 354.032196,342.794647 354.031097,340.684082 
	C353.984711,252.103958 353.979645,163.523819 353.954590,74.259750 
	C353.939728,73.575821 353.919708,73.143257 353.919708,73.143257 
z" data-index="22" style="opacity: 1;"></path>
<path fill="#FBC712" opacity="1.000000" stroke="none" d="
M353.691162,73.119225 
	C353.919708,73.143257 353.939728,73.575821 353.931702,73.792137 
	C353.665375,73.890312 353.441162,73.725716 353.130432,73.344353 
	C353.009827,73.174034 353.462646,73.095192 353.691162,73.119225 
z" data-index="23"></path>
<path fill="#B21951" opacity="1.000000" stroke="none" d="
M355.296478,73.891937 
	C355.122742,73.993416 354.975952,73.533218 354.965912,73.292435 
	C355.130646,73.054779 355.305389,73.057907 355.735046,73.122566 
	C355.862518,73.425499 355.689270,73.627617 355.296478,73.891937 
z" data-index="24"></path>
</svg>